# xmcd
#
# Track frame offsets:
#	151
#	30524
#	51550
#	92571
#	146165
#	171405
#	190339
#	205124
#	221798
#
# Disc length: 3323 seconds
#
# Revision: 1
# Processed by: cddbd v1.5.2PL0 Copyright (c) Steve Scherf et al.
# Submitted via: CDmax 2.0
#
DISCID=8a0cf909
DTITLE=Eric Clapton - I Heard You Say (disc1)
DYEAR=2006
DGENRE=Blues
TTITLE0=Tell the Truth
TTITLE1=Key to the Highway
TTITLE2=Got to Get Better in a Little While
TTITLE3=Old Love
TTITLE4=Motherless Children
TTITLE5=Driftin' Blues
TTITLE6=Outside Woman Blues
TTITLE7=Nobody Knows You When You're Down and out
TTITLE8=Running on Faith
EXTD=Eric Clapton\tguitar, vocals\nDoyle Bramhall II\tguitar, vocals\nDerek T
EXTD=rucks\tguitar\nChris Stainton\tkeyboards\nTim Carmon\tkeyboards\nWilli
EXTD=e Weeks\tbass\nSteve Jordan\tdrums\nMichelle John\tbacking vocals\nSharo
EXTD=n White\tbacking vocals\n\nRecorded live at Budokan, Tokyo, Japan on Dec
EXTD=ember 5th, 2006
EXTT0=
EXTT1=
EXTT2=
EXTT3=
EXTT4=
EXTT5=Sit Down Set~Eric Solo
EXTT6=Sit Down Set~With Rhythm Section
EXTT7=Sit Down Set
EXTT8=Sit Down Set
PLAYORDER=
